<svg width="512" height="512" viewBox="0 0 512 512" fill="none" xmlns="http://www.w3.org/2000/svg">
<path d="M192 32H128V64H192V32Z" fill="#38FE38"/>
<path d="M192 64H128V96H192V64Z" fill="#38FE38"/>
<path d="M192 96H128V128H192V96Z" fill="#38FE38"/>
<path d="M192 128H128V160H192V128Z" fill="#38FE38"/>
<path d="M192 160H128V192H192V160Z" fill="#38FE38"/>
<path d="M320 32H192V64H320V32Z" fill="#38FE38"/>
<path d="M320 64H192V96H320V64Z" fill="#9BBC0F"/>
<path d="M384 32H320V64H384V32Z" fill="#38FE38"/>
<path d="M384 64H320V96H384V64Z" fill="#38FE38"/>
<path d="M384 96H320V128H384V96Z" fill="#38FE38"/>
<path d="M384 128H320V160H384V128Z" fill="#38FE38"/>
<path d="M384 160H320V192H384V160Z" fill="#38FE38"/>
<path d="M448 192H64V224H448V192Z" fill="#38FE38"/>
<path d="M96 224H64V256H96V224Z" fill="#38FE38"/>
<path d="M96 256H64V288H96V256Z" fill="#38FE38"/>
<path d="M96 288H64V320H96V288Z" fill="#38FE38"/>
<path d="M96 320H64V352H96V320Z" fill="#38FE38"/>
<path d="M96 352H64V384H96V352Z" fill="#38FE38"/>
<path d="M96 384H64V416H96V384Z" fill="#38FE38"/>
<path d="M96 416H64V448H96V416Z" fill="#38FE38"/>
<path d="M448 224H416V256H448V224Z" fill="#38FE38"/>
<path d="M448 256H416V288H448V256Z" fill="#38FE38"/>
<path d="M448 288H416V320H448V288Z" fill="#38FE38"/>
<path d="M448 320H416V352H448V320Z" fill="#38FE38"/>
<path d="M448 352H416V384H448V352Z" fill="#38FE38"/>
<path d="M448 384H416V416H448V384Z" fill="#38FE38"/>
<path d="M448 416H416V448H448V416Z" fill="#38FE38"/>
<path d="M448 448H64V480H448V448Z" fill="#38FE38"/>
<path d="M416 224H96V448H416V224Z" fill="#0D2211"/>
<path d="M224 256H192V288H224V256Z" fill="#38FE38"/>
<path d="M288 256H224V288H288V256Z" fill="#38FE38"/>
<path d="M320 256H288V288H320V256Z" fill="#38FE38"/>
<path d="M192 288H160V320H192V288Z" fill="#38FE38"/>
<path d="M352 288H320V320H352V288Z" fill="#38FE38"/>
<path d="M192 320H160V352H192V320Z" fill="#38FE38"/>
<path d="M352 320H320V352H352V320Z" fill="#38FE38"/>
<path d="M224 352H192V384H224V352Z" fill="#38FE38"/>
<path d="M320 352H288V384H320V352Z" fill="#38FE38"/>
<path d="M288 352H224V384H288V352Z" fill="#38FE38"/>
<path d="M288 384H224V416H288V384Z" fill="#38FE38"/>
<path opacity="0.15" d="M416 224H96V256H416V224Z" fill="#9BBC0F"/>
<path opacity="0.12" d="M416 288H96V320H416V288Z" fill="#9BBC0F"/>
<path opacity="0.12" d="M416 352H96V384H416V352Z" fill="#9BBC0F"/>
<path opacity="0.12" d="M416 416H96V448H416V416Z" fill="#9BBC0F"/>
</svg>
